<?xml version="1.0" standalone="no"?>
<!DOCTYPE svg PUBLIC "-//W3C//DTD SVG 20010904//EN"
 "http://www.w3.org/TR/2001/REC-SVG-20010904/DTD/svg10.dtd">
<svg version="1.0" xmlns="http://www.w3.org/2000/svg"
 width="512.000000pt" height="512.000000pt" viewBox="0 0 512.000000 512.000000"
 preserveAspectRatio="xMidYMid meet">

<g transform="translate(0.000000,512.000000) scale(0.100000,-0.100000)"
fill="#000000" stroke="none">
<path d="M1827 5029 c-57 -13 -134 -56 -183 -101 -41 -38 -114 -162 -114 -194
0 -10 -16 -14 -61 -14 -34 0 -79 -5 -101 -12 -48 -14 -121 -76 -138 -117 l-12
-30 -371 -3 -372 -3 -50 -25 c-64 -31 -124 -91 -155 -155 l-25 -50 0 -2005 0
-2005 23 -45 c35 -72 75 -114 144 -151 l63 -34 2085 0 2085 0 63 34 c70 38
100 69 140 145 l27 51 0 725 0 725 -34 63 c-37 69 -79 109 -151 144 -43 22
-56 23 -366 26 l-321 3 -5 84 c-12 186 -127 301 -315 313 l-83 5 -2 961 -3
961 -34 63 c-37 69 -79 109 -151 144 -44 22 -54 23 -417 26 l-371 3 -12 30
c-17 41 -90 103 -138 117 -22 7 -67 12 -101 12 -45 0 -61 4 -61 14 0 7 -16 45
-35 84 -84 166 -268 253 -448 211z m167 -161 c85 -25 166 -136 166 -227 0 -21
9 -41 25 -56 23 -24 31 -25 135 -25 104 0 112 -1 135 -25 16 -15 25 -36 25
-55 0 -19 -9 -40 -25 -55 l-24 -25 -511 0 -511 0 -24 25 c-33 32 -33 78 0 110
23 24 31 25 135 25 104 0 112 1 135 25 16 15 25 35 25 56 0 62 23 113 75 164
70 71 145 90 239 63z m-764 -498 c17 -42 90 -104 138 -118 28 -9 189 -12 558
-12 l519 0 50 24 c51 23 108 78 120 116 7 21 8 21 365 18 344 -3 360 -4 386
-24 15 -11 37 -33 48 -48 21 -27 21 -36 24 -977 l2 -949 -57 0 c-32 0 -68 -3
-80 -6 l-23 -6 0 503 0 504 -343 342 -342 343 -993 0 -993 0 -24 -25 -25 -24
0 -1791 0 -1791 25 -24 24 -25 773 0 773 0 16 -63 c9 -34 19 -70 23 -80 8 -16
-32 -17 -842 -15 -841 3 -851 3 -878 24 -15 11 -37 33 -48 48 l-21 27 -3 1952
c-1 1074 0 1966 3 1984 7 40 49 91 90 109 23 10 111 13 376 14 l347 0 12 -30z
m1250 -745 l0 -296 25 -24 24 -25 296 0 295 0 0 -495 0 -494 -25 -37 c-34 -50
-55 -125 -55 -195 l0 -58 -322 -3 -323 -3 -52 -27 c-69 -37 -120 -89 -150
-155 l-24 -53 -285 0 -284 0 0 -80 0 -80 280 0 280 0 0 -320 0 -320 -280 0
-280 0 0 -80 0 -80 280 0 280 0 0 -120 0 -120 -720 0 -720 0 0 1680 0 1680
880 0 880 0 0 -295z m345 -5 l180 -180 -183 0 -182 0 0 180 c0 99 1 180 3 180
1 0 83 -81 182 -180z m941 -1406 c53 -39 68 -70 72 -144 l4 -70 -321 0 -321 0
0 54 c0 63 12 101 43 135 44 47 67 51 289 48 191 -2 209 -4 234 -23z m880
-400 c56 -41 69 -69 72 -157 l4 -82 -474 -168 c-260 -92 -479 -168 -485 -167
-7 0 -13 7 -13 15 0 30 -40 93 -80 127 -89 77 -211 77 -300 0 -40 -34 -80 -97
-80 -127 0 -8 -6 -15 -12 -15 -7 0 -226 75 -485 167 l-473 168 0 67 c0 74 11
112 43 147 49 53 1 51 1169 48 1080 -2 1087 -2 1114 -23z m-1864 -572 c243
-87 455 -162 471 -166 22 -5 27 -12 27 -38 0 -61 23 -112 75 -163 73 -74 151
-92 248 -59 84 28 157 132 157 222 0 26 5 33 28 38 15 4 226 78 470 165 244
88 448 159 453 159 6 0 9 -193 7 -529 -3 -517 -3 -530 -24 -557 -11 -15 -33
-37 -48 -48 -27 -21 -32 -21 -1126 -21 -1094 0 -1099 0 -1126 21 -15 11 -37
33 -48 48 -21 27 -21 40 -24 557 -1 325 1 529 7 529 5 0 209 -71 453 -158z
m793 13 c24 -23 25 -31 25 -135 0 -104 -1 -112 -25 -135 -15 -16 -36 -25 -55
-25 -19 0 -40 9 -55 25 -24 23 -25 31 -25 135 0 104 1 112 25 135 15 16 36 25
55 25 19 0 40 -9 55 -25z"/>
<path d="M905 3735 l-25 -24 0 -271 0 -271 25 -24 24 -25 671 0 671 0 24 25
25 24 0 271 0 271 -25 24 -24 25 -671 0 -671 0 -24 -25z m1255 -295 l0 -160
-560 0 -560 0 0 160 0 160 560 0 560 0 0 -160z"/>
<path d="M1600 2800 l0 -80 400 0 400 0 0 80 0 80 -400 0 -400 0 0 -80z"/>
<path d="M1168 2723 l-128 -128 -48 48 c-26 26 -52 47 -58 47 -13 0 -104 -93
-104 -106 0 -6 40 -49 89 -97 127 -125 114 -128 323 80 92 92 168 172 168 178
0 13 -92 105 -105 105 -6 0 -67 -57 -137 -127z"/>
<path d="M1600 2480 l0 -80 520 0 520 0 0 80 0 80 -520 0 -520 0 0 -80z"/>
<path d="M2800 2480 l0 -80 80 0 80 0 0 80 0 80 -80 0 -80 0 0 -80z"/>
<path d="M1600 2000 l0 -80 280 0 280 0 0 80 0 80 -280 0 -280 0 0 -80z"/>
<path d="M1168 1923 l-128 -128 -48 48 c-26 26 -52 47 -58 47 -13 0 -104 -93
-104 -106 0 -6 40 -49 89 -97 127 -125 114 -128 323 80 92 92 168 172 168 178
0 13 -92 105 -105 105 -6 0 -67 -57 -137 -127z"/>
<path d="M1600 1200 l0 -80 200 0 200 0 0 80 0 80 -200 0 -200 0 0 -80z"/>
<path d="M1168 1123 l-128 -128 -48 48 c-26 26 -52 47 -58 47 -13 0 -104 -93
-104 -106 0 -6 40 -49 89 -97 127 -125 114 -128 323 80 92 92 168 172 168 178
0 13 -92 105 -105 105 -6 0 -67 -57 -137 -127z"/>
</g>
</svg>
